<svg xmlns="http://www.w3.org/2000/svg" xmlns:xlink="http://www.w3.org/1999/xlink" width="170" height="48" viewBox="0 0 170 48">
  <defs>
    <clipPath id="clip-_01">
      <rect width="170" height="48"/>
    </clipPath>
  </defs>
  <g id="_01" data-name="01" clip-path="url(#clip-_01)">
    <path id="Path_10" data-name="Path 10" d="M1296.29,59.91a21.106,21.106,0,0,1,3.11-11.16,18.13,18.13,0,0,1-5.86-1.2c.5-1.41,1-2.78,1.49-4.28a23.792,23.792,0,0,0,8.17,1.05h14.62a11.049,11.049,0,0,1,6.88,1.96c1.9,1.49,3.19,3.98,3.19,8.2V74.75h-15.91V70.3h10.84V55.22c0-4.92-1.2-6.45-5.89-6.45h-12.54c-2.2,3.02-2.96,6.8-2.96,10.69a30.972,30.972,0,0,0,1.32,9.05l.97,3.13c-.09,1.03-.12,1.96-.32,3.11h-11.6V70.4h6.42A33,33,0,0,1,1296.29,59.91Z" transform="translate(-1291.27 -36.01)" fill="#231f20"/>
    <path id="Path_11" data-name="Path 11" d="M1346.5,49.92a45.164,45.164,0,0,1-.15,4.57,23.557,23.557,0,0,1-.62,3.52l-4.95-.73c.21-1.17.35-2.08.47-3.16a39.345,39.345,0,0,0,.18-4.31V48.76h-6.71V44.3h11.78v5.62Zm-.64,24.85h-5.07V63.93h5.07Z" transform="translate(-1291.27 -36.01)" fill="#231f20"/>
    <path id="Path_12" data-name="Path 12" d="M1355.74,47.55c.5-1.41,1-2.78,1.49-4.28a23.792,23.792,0,0,0,8.17,1.05h1.76a10.342,10.342,0,0,1,6.68,2.08c1.88,1.55,3.19,4.13,3.4,8.26.12,2.2.15,4.31.18,6.62.03,1.88.03,5.42.03,7.68a16.582,16.582,0,0,1-.15,2.49c-.12.85-.32,1.82-.67,3.31h-22.35V70.31h18.19c0-4.8-.06-10.05-.26-15.09-.15-4.86-1.23-6.45-5.95-6.45h-2.2A20.147,20.147,0,0,1,1355.74,47.55Zm39.69,27.22h-5.07V48.78h-5.13V44.33h10.2Zm8.42-27.22c.5-1.41,1-2.78,1.49-4.28a23.792,23.792,0,0,0,8.17,1.05h2.75a10.862,10.862,0,0,1,6.88,1.96c1.88,1.52,3.19,4.13,3.19,8.38v20.1h-5.07V55.22c0-4.83-1.2-6.45-5.92-6.45h-3.19A20.15,20.15,0,0,1,1403.85,47.55Zm30.96,0c.5-1.41,1-2.78,1.49-4.28a23.792,23.792,0,0,0,8.17,1.05h.85a10.823,10.823,0,0,1,6.86,1.96c1.88,1.49,3.16,3.98,3.16,8.2V70.3h5.39v4.45h-27.74V70.3h17.29V55.22c0-4.86-1.17-6.45-5.89-6.45h-1.26A20.2,20.2,0,0,1,1434.81,47.55Z" transform="translate(-1291.27 -36.01)" fill="#231f20"/>
  </g>
</svg>
