<svg xmlns="http://www.w3.org/2000/svg" xmlns:xlink="http://www.w3.org/1999/xlink" width="138" height="41" viewBox="0 0 138 41">
  <defs>
    <clipPath id="clip-_01">
      <rect width="138" height="41"/>
    </clipPath>
  </defs>
  <g id="_01" data-name="01" clip-path="url(#clip-_01)">
    <path id="Path_18" data-name="Path 18" d="M363.09,47.23a16.808,16.808,0,0,0-1.38-5.16,29.088,29.088,0,0,1,4.39-1.93,15.541,15.541,0,0,1,1.52,4.16,49.663,49.663,0,0,1,.67,6.09l1.23,16.38c.7.06,1.38.09,2.02.09,6.65,0,11.6-2.14,14.88-5.8s4.89-8.82,4.89-14.88a41.625,41.625,0,0,0-.32-4.98,43.816,43.816,0,0,1,4.98-1.03,28.718,28.718,0,0,1,.47,5.42c0,8.55-2.4,15.06-6.83,19.39s-10.81,6.53-18.75,6.53a47.579,47.579,0,0,1-5.95-.35l-1.26-15.94C363.44,52.53,363.24,48.75,363.09,47.23Zm18.75-4.28a13.1,13.1,0,0,1-.5,3.46,41.687,41.687,0,0,1-2.26,5.86l-3.25,7.12-4.34-1.9,3.19-7.12a35.7,35.7,0,0,0,2.02-5.21,7.046,7.046,0,0,0,.21-1.82,16.788,16.788,0,0,0-.18-2.23l4.69-.94A9.669,9.669,0,0,1,381.84,42.95Zm31.95,28.33h-5.07V45.29h-5.13V40.84h10.2Zm16.45-31.49c1.32.26,2.99.62,4.75.97.85.21,1.7.38,2.52.59a33.886,33.886,0,0,1,3.9,1.11c4.1,1.61,5.21,4.34,5.21,8.5V65.52a19.081,19.081,0,0,1-.18,2.61c-.15.91-.35,1.9-.67,3.16H421.6V66.87h20.01V51.62c0-3.93-.79-4.86-4.37-5.83-.85-.21-1.73-.44-2.7-.64s-1.88-.41-2.72-.62l-3.34,7.53,5.89,3.49L432,59.41l-9.67-5.74,6.3-14.18C429.04,39.58,429.56,39.67,430.24,39.79Zm35.37,10.54a45.166,45.166,0,0,1-.15,4.57,23.553,23.553,0,0,1-.62,3.52l-4.95-.73c.21-1.17.35-2.08.47-3.16a39.348,39.348,0,0,0,.18-4.31V45.3h-6.71V40.85h11.78Zm11.17-5.21a16.958,16.958,0,0,1-4.1-1.05c.5-1.41,1-2.78,1.49-4.28a23.791,23.791,0,0,0,8.17,1.05h7.24a10.862,10.862,0,0,1,6.88,1.96c1.9,1.49,3.19,3.98,3.19,8.2V71.27h-5.07V51.74c0-4.92-1.2-6.45-5.89-6.45h-7c-1.49,3.16-1.49,6.36-1.49,9.35V71.28h-5.07V54.96A23.312,23.312,0,0,1,476.78,45.12Z" transform="translate(-361.71 -39.49)" fill="#231f20"/>
  </g>
</svg>
