<svg xmlns="http://www.w3.org/2000/svg" xmlns:xlink="http://www.w3.org/1999/xlink" width="147" height="41" viewBox="0 0 147 41">
  <defs>
    <clipPath id="clip-_02">
      <rect width="147" height="41"/>
    </clipPath>
  </defs>
  <g id="_02" data-name="02" clip-path="url(#clip-_02)">
    <path id="Path_14" data-name="Path 14" d="M195.42,56.43a21.106,21.106,0,0,1,3.11-11.16,18.13,18.13,0,0,1-5.86-1.2c.5-1.41,1-2.78,1.49-4.28a23.791,23.791,0,0,0,8.17,1.05h17.75v4.45H203.53c-2.2,3.02-2.96,6.8-2.96,10.69a30.971,30.971,0,0,0,1.32,9.05l.97,3.13c-.09,1.03-.12,1.96-.32,3.11h-11.6V66.9h6.42A32.862,32.862,0,0,1,195.42,56.43Z" transform="translate(-190.94 -39.49)" fill="#231f20"/>
    <path id="Path_15" data-name="Path 15" d="M238.7,46.44a45.166,45.166,0,0,1-.15,4.57,23.551,23.551,0,0,1-.62,3.52l-4.95-.73c.21-1.17.35-2.08.47-3.16a39.348,39.348,0,0,0,.18-4.31V45.28h-6.71V40.83H238.7Zm-.65,24.84h-5.07V60.44h5.07Z" transform="translate(-190.94 -39.49)" fill="#231f20"/>
    <path id="Path_16" data-name="Path 16" d="M248.85,47.23a16.808,16.808,0,0,0-1.38-5.16,29.089,29.089,0,0,1,4.39-1.93,15.542,15.542,0,0,1,1.52,4.16,49.654,49.654,0,0,1,.67,6.09l1.23,16.38c.7.06,1.38.09,2.02.09,6.65,0,11.6-2.14,14.88-5.8s4.89-8.82,4.89-14.88a41.625,41.625,0,0,0-.32-4.98,43.816,43.816,0,0,1,4.98-1.03,28.718,28.718,0,0,1,.47,5.42c0,8.55-2.4,15.06-6.83,19.39s-10.81,6.53-18.75,6.53a47.578,47.578,0,0,1-5.95-.35l-1.26-15.94C249.2,52.53,249,48.75,248.85,47.23Zm18.75-4.28a13.1,13.1,0,0,1-.5,3.46,41.687,41.687,0,0,1-2.26,5.86l-3.25,7.12-4.34-1.9,3.19-7.12a35.7,35.7,0,0,0,2.02-5.21,7.046,7.046,0,0,0,.21-1.82,16.788,16.788,0,0,0-.18-2.23l4.69-.94A10.028,10.028,0,0,1,267.6,42.95Zm35.12-1.11c.06.67.15,1.55.29,2.7.12,1.14.26,2.49.41,4.01.15,1.55.32,3.19.53,4.98.35,3.54.76,7.5,1.11,11.28a24.043,24.043,0,0,1,0,6.47H287.6V66.83h12.69L298.03,45.3h-7.15V40.85H302.6Z" transform="translate(-190.94 -39.49)" fill="#231f20"/>
    <path id="Path_17" data-name="Path 17" d="M317.82,54.37c-2.02-2.58-2.23-2.96-3.02-4.07a30.044,30.044,0,0,1-2.9-4.86,26.572,26.572,0,0,1-1.35-4.04,27.827,27.827,0,0,1,4.75-1.55c.09.23.15.47.23.67a6.2,6.2,0,0,0,.21.7,25.761,25.761,0,0,0,1.61,3.93,41.944,41.944,0,0,0,3.72,5.51c.44.59,1.41,1.67,1.99,2.34.64.73,2.46,2.84,3.87,4.42l.12.15c2.64-1.9,3.57-4.66,4.48-7.97.44-1.52.85-3.08,1.23-4.6l-4.28-.82.79-4.1,8.2,1.44.15,3.78c-.38,1.88-1.08,4.28-1.64,6.18-1.35,4.66-2.46,6.94-5.95,9.58l7,8.23-3.57,3.16Z" transform="translate(-190.94 -39.49)" fill="#231f20"/>
  </g>
</svg>
