<svg xmlns="http://www.w3.org/2000/svg" xmlns:xlink="http://www.w3.org/1999/xlink" width="156" height="48" viewBox="0 0 156 48">
  <defs>
    <clipPath id="clip-_02">
      <rect width="156" height="48"/>
    </clipPath>
  </defs>
  <g id="_02" data-name="02" clip-path="url(#clip-_02)">
    <path id="Path_7" data-name="Path 7" d="M1118.27,59.91a21.106,21.106,0,0,1,3.11-11.16,18.13,18.13,0,0,1-5.86-1.2c.5-1.41,1-2.78,1.49-4.28a23.792,23.792,0,0,0,8.17,1.05h14.62a11.049,11.049,0,0,1,6.88,1.96c1.9,1.49,3.19,3.98,3.19,8.2V74.75h-15.91V70.3h10.84V55.22c0-4.92-1.2-6.45-5.89-6.45h-12.54c-2.2,3.02-2.96,6.8-2.96,10.69a30.972,30.972,0,0,0,1.32,9.05l.97,3.13c-.09,1.03-.12,1.96-.32,3.11h-11.6V70.4h6.42A33,33,0,0,1,1118.27,59.91Z" transform="translate(-1113.78 -36.01)" fill="#231f20"/>
    <path id="Path_8" data-name="Path 8" d="M1168.48,49.92a45.164,45.164,0,0,1-.15,4.57,23.557,23.557,0,0,1-.62,3.52l-4.95-.73c.21-1.17.35-2.08.47-3.16a39.345,39.345,0,0,0,.18-4.31V48.76h-6.71V44.3h11.78v5.62Zm-.64,24.85h-5.07V63.93h5.07Z" transform="translate(-1113.78 -36.01)" fill="#231f20"/>
    <path id="Path_9" data-name="Path 9" d="M1176.81,70.87c0-1.32.06-3.66.09-5.07a22.873,22.873,0,0,1,1.08-7.03,14.768,14.768,0,0,1,3.02-4.98,30.043,30.043,0,0,1-2.9-4.86,26.565,26.565,0,0,1-1.35-4.04,27.828,27.828,0,0,1,4.75-1.55c.09.23.15.47.23.67a6.22,6.22,0,0,0,.21.7,20.806,20.806,0,0,0,1.61,3.93,35.939,35.939,0,0,0,3.72,5.51c.44.59,1.41,1.67,1.99,2.34.64.73,2.46,2.84,3.87,4.42l.12.15c2.7-1.96,3.49-4.6,4.48-7.97.44-1.52.85-3.08,1.23-4.6l-4.28-.82.79-4.1,8.2,1.44.15,3.78c-.38,1.88-1.08,4.28-1.64,6.18-1.35,4.66-2.46,6.94-5.95,9.58l7,8.23-3.57,3.16-15.64-18.08a10.671,10.671,0,0,0-1.93,5.65c-.21,1.82-.18,4.95-.21,6.83-.03.62-.03,1.29-.03,2.02s0,1.64-.03,2.67h-5.07C1176.75,74.06,1176.78,72.19,1176.81,70.87Zm34.92-23.32c.5-1.41,1-2.78,1.49-4.28a23.792,23.792,0,0,0,8.17,1.05h.85a10.823,10.823,0,0,1,6.86,1.96c1.88,1.49,3.16,3.98,3.16,8.2V70.3h5.39v4.45h-27.74V70.3h17.29V55.22c0-4.86-1.17-6.45-5.89-6.45h-1.26A20.2,20.2,0,0,1,1211.73,47.55Zm32.26,0c.5-1.41,1-2.78,1.49-4.28a23.792,23.792,0,0,0,8.17,1.05h5.71a10.665,10.665,0,0,1,6.86,1.99c1.88,1.49,3.16,4.1,3.16,8.35v20.1h-5.07V55.22c0-4.89-1.14-6.45-5.92-6.45h-6.09A20.173,20.173,0,0,1,1243.99,47.55Zm1.23,9.93c.82.12,1.64.23,2.49.35.82.15,1.64.26,2.46.38a38.074,38.074,0,0,0-.64,7.47v9.08h-5.07v-9.2A31.745,31.745,0,0,1,1245.22,57.48Z" transform="translate(-1113.78 -36.01)" fill="#231f20"/>
  </g>
</svg>
