<svg xmlns="http://www.w3.org/2000/svg" xmlns:xlink="http://www.w3.org/1999/xlink" width="187" height="48" viewBox="0 0 187 48">
  <defs>
    <clipPath id="clip-_03">
      <rect width="187" height="48"/>
    </clipPath>
  </defs>
  <g id="_03" data-name="03" clip-path="url(#clip-_03)">
    <path id="Path_6" data-name="Path 6" d="M909.95,59.91a21.105,21.105,0,0,1,3.11-11.16,18.13,18.13,0,0,1-5.86-1.2c.5-1.41,1-2.78,1.49-4.28a23.791,23.791,0,0,0,8.17,1.05h7.62a10.893,10.893,0,0,1,6.91,1.99c1.9,1.49,3.22,4.1,3.22,8.35v20.1h-5.07V55.22c0-4.83-1.03-6.45-5.74-6.45h-5.74c-2.2,3.02-2.96,6.8-2.96,10.69a33.471,33.471,0,0,0,1.32,9.05l.97,3.13c-.09,1.03-.12,1.96-.32,3.11h-11.6V70.4h6.42A32.752,32.752,0,0,1,909.95,59.91Zm32.51-12.36c.5-1.41,1-2.78,1.49-4.28a23.791,23.791,0,0,0,8.17,1.05h1.76a10.342,10.342,0,0,1,6.68,2.08c1.88,1.55,3.19,4.13,3.4,8.26.12,2.2.15,4.31.18,6.62.03,1.88.03,5.42.03,7.68a16.582,16.582,0,0,1-.15,2.49c-.12.85-.32,1.82-.67,3.31H941V70.31h18.19c0-4.8-.06-10.05-.26-15.09-.15-4.86-1.23-6.45-5.95-6.45h-2.2A20.171,20.171,0,0,1,942.46,47.55Zm28.91,0c.5-1.41,1-2.78,1.49-4.28a23.791,23.791,0,0,0,8.17,1.05h2.75a10.862,10.862,0,0,1,6.88,1.96c1.88,1.52,3.19,4.13,3.19,8.38v20.1h-5.07V55.22c0-4.83-1.2-6.45-5.92-6.45h-3.19A20.15,20.15,0,0,1,971.37,47.55Zm48.13-4.01,8.64,2.29c.12,1.38.21,2.72.21,4.1a35.892,35.892,0,0,1-2.34,9.4,26.1,26.1,0,0,1-5.27,8.2,31.169,31.169,0,0,1-9.23,6.39,53.112,53.112,0,0,1-8.85,3.19l-1.44-4.51a70.23,70.23,0,0,0,9.61-3.46c-1.05-2.72-2.08-5.48-3.11-8.2s-2.08-5.45-3.13-8.17a7.517,7.517,0,0,0-1.52-2.81,14.7,14.7,0,0,0-3.72-2.08c.7-1.41,1.44-2.81,2.23-4.22A19.57,19.57,0,0,1,1006.3,46a7.143,7.143,0,0,1,2.43,3.4c.21.5.38,1.03.59,1.52.38,1.03.85,2.23,1.44,3.84.29.82.64,1.79,1.05,2.9.64,1.79,2.14,6.04,3.19,8.99a17.938,17.938,0,0,0,5.71-7.29,34.505,34.505,0,0,0,2.52-10.11l-4.95-1.35C1018.65,46.41,1019.06,45.03,1019.5,43.54Zm14.95,26.42c.35-2.14.91-5.36,1.17-6.83.15-.88.29-1.76.44-2.61.21-1.29.62-3.96.88-5.65a8.38,8.38,0,0,0-.44-4.45c-.44-1-1.82-3.08-2.84-4.69.85-.5,3.49-2.08,4.48-2.67a26.978,26.978,0,0,1,3.28,5.36c3.22-2.99,5.8-4.78,10.05-4.78,5.16,0,8.73,2.64,9.87,8.17a42.685,42.685,0,0,1,.5,6.5c.03,2.11,0,5.16,0,6.68-.03,2.7-.12,5.3-.23,6.94-.03.44-.09.88-.12,1.35a12.628,12.628,0,0,1-.18,1.46h-14.44V70.29h9.81c.03-.5.12-1.73.15-2.67,0-1.29.03-3.28.03-6.56a50.829,50.829,0,0,0-.53-8.12c-.73-2.96-2.17-4.78-5.33-4.78-3.43,0-6.3,2.37-8.73,4.98-.35,2.17-.64,4.07-.91,5.74-.41,2.58-1.03,6.3-1.29,7.97-.18,1.03-.35,1.99-.5,2.9-.23,1.38-.64,3.87-.88,5.24h-5.1C1033.92,73.1,1034.18,71.4,1034.45,69.96Zm39.63-25.63h16.9a27.658,27.658,0,0,1,.64,2.75,14.3,14.3,0,0,1,.09,1.96v6.33c0,4.6-1.88,8.58-5.54,12.69l-7.18,7.88-3.57-3.19,6.71-7.5c2.67-3.05,4.51-5.48,4.51-9.7V48.78H1069V36.01h5.07v8.32Z" transform="translate(-905.47 -36.01)" fill="#231f20"/>
  </g>
</svg>
