<svg xmlns="http://www.w3.org/2000/svg" xmlns:xlink="http://www.w3.org/1999/xlink" width="147" height="48" viewBox="0 0 147 48">
  <defs>
    <clipPath id="clip-_04">
      <rect width="147" height="48"/>
    </clipPath>
  </defs>
  <g id="_04" data-name="04" clip-path="url(#clip-_04)">
    <path id="Path_2" data-name="Path 2" d="M741.17,59.91a21.105,21.105,0,0,1,3.11-11.16,18.13,18.13,0,0,1-5.86-1.2c.5-1.41,1-2.78,1.49-4.28a23.791,23.791,0,0,0,8.17,1.05h17.75v4.45H749.28c-2.2,3.02-2.96,6.8-2.96,10.69a30.97,30.97,0,0,0,1.32,9.05l.97,3.13c-.09,1.03-.12,1.96-.32,3.11h-11.6V70.4h6.42A32.752,32.752,0,0,1,741.17,59.91Z" transform="translate(-736.69 -36.01)" fill="#231f20"/>
    <path id="Path_3" data-name="Path 3" d="M784.44,49.92a45.164,45.164,0,0,1-.15,4.57,23.549,23.549,0,0,1-.62,3.52l-4.95-.73c.21-1.17.35-2.08.47-3.16a39.348,39.348,0,0,0,.18-4.31V48.76h-6.71V44.3h11.78v5.62Zm-.65,24.85h-5.07V63.93h5.07Z" transform="translate(-736.69 -36.01)" fill="#231f20"/>
    <path id="Path_4" data-name="Path 4" d="M794.59,50.71a16.808,16.808,0,0,0-1.38-5.16,29.089,29.089,0,0,1,4.39-1.93,15.543,15.543,0,0,1,1.52,4.16,49.658,49.658,0,0,1,.67,6.09l1.23,16.38c.7.06,1.38.09,2.02.09,6.65,0,11.6-2.14,14.88-5.8s4.89-8.82,4.89-14.88a41.625,41.625,0,0,0-.32-4.98,43.817,43.817,0,0,1,4.98-1.03,28.718,28.718,0,0,1,.47,5.42c0,8.55-2.4,15.06-6.83,19.39S810.33,75,802.39,75a47.578,47.578,0,0,1-5.95-.35l-1.26-15.94C794.94,56.02,794.74,52.24,794.59,50.71Zm18.75-4.27a13.1,13.1,0,0,1-.5,3.46,41.683,41.683,0,0,1-2.26,5.86l-3.25,7.12-4.34-1.9,3.19-7.12a35.7,35.7,0,0,0,2.02-5.21,7.045,7.045,0,0,0,.21-1.82,16.788,16.788,0,0,0-.18-2.23l4.69-.94A9.671,9.671,0,0,1,813.34,46.44Zm35.12-1.12c.06.67.15,1.55.29,2.7.12,1.14.26,2.49.41,4.01.15,1.55.32,3.19.53,4.98.35,3.54.76,7.5,1.11,11.28a24.045,24.045,0,0,1,0,6.47H833.34V70.31h12.69l-2.26-21.53h-7.15V44.33h11.72Z" transform="translate(-736.69 -36.01)" fill="#231f20"/>
    <path id="Path_5" data-name="Path 5" d="M863.56,57.86c-2.02-2.58-2.23-2.96-3.02-4.07a30.047,30.047,0,0,1-2.9-4.86,26.565,26.565,0,0,1-1.35-4.04,27.826,27.826,0,0,1,4.75-1.55c.09.23.15.47.23.67a6.2,6.2,0,0,0,.21.7,25.761,25.761,0,0,0,1.61,3.93,41.949,41.949,0,0,0,3.72,5.51c.44.59,1.41,1.67,1.99,2.34.64.73,2.46,2.84,3.87,4.42l.12.15c2.64-1.9,3.57-4.66,4.48-7.97.44-1.52.85-3.08,1.23-4.6l-4.28-.82.79-4.1,8.2,1.44.15,3.78c-.38,1.88-1.08,4.28-1.64,6.18-1.35,4.66-2.46,6.94-5.95,9.58l7,8.23-3.57,3.16Z" transform="translate(-736.69 -36.01)" fill="#231f20"/>
  </g>
</svg>
