<svg xmlns="http://www.w3.org/2000/svg" xmlns:xlink="http://www.w3.org/1999/xlink" width="182" height="48" viewBox="0 0 182 48">
  <defs>
    <clipPath id="clip-_05">
      <rect width="182" height="48"/>
    </clipPath>
  </defs>
  <g id="_05" data-name="05" clip-path="url(#clip-_05)">
    <path id="_05-2" data-name="05" d="M553.12,43.54l8.64,2.29c.12,1.38.21,2.72.21,4.1a35.89,35.89,0,0,1-2.34,9.4,26.1,26.1,0,0,1-5.27,8.2,31.169,31.169,0,0,1-9.23,6.39,53.112,53.112,0,0,1-8.85,3.19l-1.44-4.51a70.23,70.23,0,0,0,9.61-3.46c-1.05-2.72-2.08-5.48-3.11-8.2s-2.08-5.45-3.13-8.17a7.517,7.517,0,0,0-1.52-2.81,14.7,14.7,0,0,0-3.72-2.08c.7-1.41,1.44-2.81,2.23-4.22A19.57,19.57,0,0,1,539.92,46a7.143,7.143,0,0,1,2.43,3.4c.21.5.38,1.03.59,1.52.38,1.03.85,2.23,1.44,3.84.29.82.64,1.79,1.05,2.9.64,1.79,2.14,6.04,3.19,8.99a17.938,17.938,0,0,0,5.71-7.29,34.505,34.505,0,0,0,2.52-10.11L551.9,47.9C552.27,46.41,552.68,45.03,553.12,43.54Zm25.05,31.23H573.1V48.78h-5.13V44.33h10.2Zm9.62-24.44a28.644,28.644,0,0,1-1.99-5.45,40.683,40.683,0,0,1,4.75-1.55c.09.23.15.47.23.67a6.2,6.2,0,0,0,.21.7,20.723,20.723,0,0,0,1.58,3.96,31.285,31.285,0,0,0,3.75,5.48c.82,1.03,3.08,3.57,4.78,5.51,2.46-1.49,3.49-3.49,4.66-6.53.59-1.55,1-2.96,1.44-4.45l-4.16-1.26,1.14-4.01,8,2.26-.21,3.75c-.56,1.9-1.35,4.25-2.05,6.01-1.49,3.6-2.96,5.77-5.98,7.56l6.62,7.76a23.187,23.187,0,0,1-.7,4.04H586.69V70.33h17.17L593.08,57.88A36.632,36.632,0,0,1,587.79,50.33Zm32.61-2.78c.5-1.41,1-2.78,1.49-4.28a23.791,23.791,0,0,0,8.17,1.05h15.53a21.963,21.963,0,0,1,.59,2.55,23.953,23.953,0,0,1,.26,3.96v4.13c0,3.98-.53,7.03-3.16,10.14-2.84,3.31-5.57,6.27-8.38,9.32l-3.87-3.52,3.25-3.43c1.76-1.88,3.52-3.78,4.89-5.42,2.14-2.52,2.2-5.04,2.2-8.55,0-1.55-.03-3.11-.12-4.72H628.71A20.345,20.345,0,0,1,620.4,47.55Zm1.47,8.14c.85.12,1.67.23,2.52.35.82.15,1.64.26,2.49.38a38.074,38.074,0,0,0-.64,7.47v20.1h-5.07V63.78A31.982,31.982,0,0,1,621.87,55.69Zm31.76,14.27c.35-2.14.91-5.36,1.17-6.83.15-.88.29-1.76.44-2.61.21-1.29.62-3.96.88-5.65a8.378,8.378,0,0,0-.44-4.45c-.44-1-1.82-3.08-2.84-4.69.85-.5,3.49-2.08,4.48-2.67a26.981,26.981,0,0,1,3.28,5.36c3.22-2.99,5.8-4.78,10.05-4.78,5.16,0,8.73,2.64,9.87,8.17a42.669,42.669,0,0,1,.5,6.5c.03,2.11,0,5.16,0,6.68-.03,2.7-.12,5.3-.23,6.94-.03.44-.09.88-.12,1.35a12.641,12.641,0,0,1-.18,1.46H666.05V70.29h9.81c.03-.5.12-1.73.15-2.67,0-1.29.03-3.28.03-6.56a50.829,50.829,0,0,0-.53-8.12c-.73-2.96-2.17-4.78-5.33-4.78-3.43,0-6.3,2.37-8.73,4.98-.35,2.17-.64,4.07-.91,5.74-.41,2.58-1.03,6.3-1.29,7.97-.18,1.03-.35,1.99-.5,2.9-.23,1.38-.64,3.87-.88,5.24h-5.1C653.1,73.1,653.36,71.4,653.63,69.96Zm35.18-22.41c.5-1.41,1-2.78,1.49-4.28a23.791,23.791,0,0,0,8.17,1.05h5.71a10.665,10.665,0,0,1,6.86,1.99c1.88,1.49,3.16,4.1,3.16,8.35v20.1h-5.07V55.22c0-4.89-1.14-6.45-5.92-6.45h-6.09A20.173,20.173,0,0,1,688.81,47.55Zm1.23,9.93c.82.12,1.64.23,2.49.35.82.15,1.64.26,2.46.38a38.074,38.074,0,0,0-.64,7.47v9.08h-5.07v-9.2A31.745,31.745,0,0,1,690.04,57.48Z" transform="translate(-532.97 -36.01)" fill="#231f20"/>
  </g>
</svg>
