<svg xmlns="http://www.w3.org/2000/svg" xmlns:xlink="http://www.w3.org/1999/xlink" width="65" height="48" viewBox="0 0 65 48">
  <defs>
    <clipPath id="clip-_06">
      <rect width="65" height="48"/>
    </clipPath>
  </defs>
  <g id="_06" data-name="06" clip-path="url(#clip-_06)">
    <path id="_08" data-name="08" d="M451.58,44.33h16.9a27.658,27.658,0,0,1,.64,2.75,14.291,14.291,0,0,1,.09,1.96v6.33c0,4.6-1.88,8.58-5.54,12.69l-7.18,7.88-3.57-3.19,6.71-7.5c2.67-3.05,4.51-5.48,4.51-9.7V48.78H446.5V36.01h5.07v8.32Zm26.03,6.38a16.808,16.808,0,0,0-1.38-5.16,29.088,29.088,0,0,1,4.39-1.93,15.541,15.541,0,0,1,1.52,4.16,49.663,49.663,0,0,1,.67,6.09l1.23,16.38c.7.06,1.38.09,2.02.09,6.65,0,11.6-2.14,14.88-5.8s4.89-8.82,4.89-14.88a41.625,41.625,0,0,0-.32-4.98,43.816,43.816,0,0,1,4.98-1.03,28.718,28.718,0,0,1,.47,5.42c0,8.55-2.4,15.06-6.83,19.39C499.73,72.8,493.35,75,485.41,75a47.579,47.579,0,0,1-5.95-.35L478.2,58.71C477.97,56.02,477.76,52.24,477.61,50.71Zm18.75-4.27a13.1,13.1,0,0,1-.5,3.46,41.687,41.687,0,0,1-2.26,5.86l-3.25,7.12-4.34-1.9,3.19-7.12a35.7,35.7,0,0,0,2.02-5.21,7.046,7.046,0,0,0,.21-1.82,16.788,16.788,0,0,0-.18-2.23l4.69-.94A9.669,9.669,0,0,1,496.36,46.44Z" transform="translate(-446.5 -36.01)" fill="#231f20"/>
  </g>
</svg>
