<svg xmlns="http://www.w3.org/2000/svg" xmlns:xlink="http://www.w3.org/1999/xlink" width="174" height="48" viewBox="0 0 174 48">
  <defs>
    <clipPath id="clip-_07">
      <rect width="174" height="48"/>
    </clipPath>
  </defs>
  <g id="_07" data-name="07" clip-path="url(#clip-_07)">
    <path id="_07-2" data-name="07" d="M248.47,47.55c.5-1.41,1-2.78,1.49-4.28a23.791,23.791,0,0,0,8.17,1.05h5.71a10.665,10.665,0,0,1,6.86,1.99c1.88,1.49,3.16,4.1,3.16,8.35v20.1h-5.07V55.22c0-4.89-1.14-6.45-5.92-6.45h-6.09A20.173,20.173,0,0,1,248.47,47.55Zm1.23,9.93c.82.12,1.64.23,2.49.35.82.15,1.64.26,2.46.38a38.072,38.072,0,0,0-.64,7.47v9.08h-5.07v-9.2A31.742,31.742,0,0,1,249.7,57.48Zm36.28-13.15h16.9a27.658,27.658,0,0,1,.64,2.75,14.291,14.291,0,0,1,.09,1.96v6.33c0,4.6-1.88,8.58-5.54,12.69l-7.18,7.88-3.57-3.19,6.71-7.5c2.67-3.05,4.51-5.48,4.51-9.7V48.78H280.9V36.01h5.07v8.32Zm35.85,9.49a45.166,45.166,0,0,1-.15,4.57,23.553,23.553,0,0,1-.62,3.52l-4.95-.73c.21-1.17.35-2.08.47-3.16a39.348,39.348,0,0,0,.18-4.31V48.79h-6.71V44.34h11.78Zm8.36-6.27c.5-1.41,1-2.78,1.49-4.28a23.791,23.791,0,0,0,8.17,1.05h5.71a10.665,10.665,0,0,1,6.86,1.99c1.88,1.49,3.16,4.1,3.16,8.35v20.1h-5.07V55.22c0-4.89-1.14-6.45-5.92-6.45H338.5A20.173,20.173,0,0,1,330.19,47.55Zm1.23,9.93c.82.12,1.64.23,2.49.35.82.15,1.64.26,2.46.38a38.072,38.072,0,0,0-.64,7.47v9.08h-5.07v-9.2A31.743,31.743,0,0,1,331.42,57.48Zm32.24-9.93c.5-1.41,1-2.78,1.49-4.28a23.791,23.791,0,0,0,8.17,1.05h15.53a21.949,21.949,0,0,1,.59,2.55,23.957,23.957,0,0,1,.26,3.96v4.13c0,3.98-.53,7.03-3.16,10.14-2.84,3.31-5.57,6.27-8.38,9.32l-3.87-3.52,3.25-3.43c1.76-1.88,3.52-3.78,4.89-5.42,2.14-2.52,2.2-5.04,2.2-8.55,0-1.55-.03-3.11-.12-4.72H371.97A20.345,20.345,0,0,1,363.66,47.55Zm1.47,8.14c.85.12,1.67.23,2.52.35.82.15,1.64.26,2.49.38a38.072,38.072,0,0,0-.64,7.47v20.1h-5.07V63.78A31.986,31.986,0,0,1,365.13,55.69Zm31.96-8.14c.5-1.41,1-2.78,1.49-4.28a23.791,23.791,0,0,0,8.17,1.05h5.71a10.665,10.665,0,0,1,6.86,1.99c1.88,1.49,3.16,4.1,3.16,8.35v20.1h-5.07V55.22c0-4.89-1.14-6.45-5.92-6.45H405.4A20.173,20.173,0,0,1,397.09,47.55Zm1.23,9.93c.82.12,1.64.23,2.49.35.82.15,1.64.26,2.46.38a38.072,38.072,0,0,0-.64,7.47v9.08h-5.07v-9.2A31.743,31.743,0,0,1,398.32,57.48Z" transform="translate(-248.47 -36.01)" fill="#231f20"/>
  </g>
</svg>
