<svg xmlns="http://www.w3.org/2000/svg" xmlns:xlink="http://www.w3.org/1999/xlink" width="205" height="48" viewBox="0 0 205 48">
  <defs>
    <clipPath id="clip-_08">
      <rect width="205" height="48"/>
    </clipPath>
  </defs>
  <g id="_08" data-name="08" clip-path="url(#clip-_08)">
    <path id="_06" data-name="06" d="M23.75,59.91a21.106,21.106,0,0,1,3.11-11.16A18.13,18.13,0,0,1,21,47.55c.5-1.41,1-2.78,1.49-4.28a23.791,23.791,0,0,0,8.17,1.05h7.62a10.893,10.893,0,0,1,6.91,1.99c1.9,1.49,3.22,4.1,3.22,8.35v20.1H43.34V55.22c0-4.83-1.03-6.45-5.74-6.45H31.86c-2.2,3.02-2.96,6.8-2.96,10.69a33.47,33.47,0,0,0,1.32,9.05l.97,3.13c-.09,1.03-.12,1.96-.32,3.11H19.27V70.4h6.42A32.75,32.75,0,0,1,23.75,59.91Zm43.26-6.09a45.163,45.163,0,0,1-.15,4.57,23.552,23.552,0,0,1-.62,3.52l-4.95-.73c.21-1.17.35-2.08.47-3.16a39.345,39.345,0,0,0,.18-4.31V48.79H55.23V44.34H67.01Zm32.27-6.77c2.26,2.58,2.7,7.65,2.7,11.43a44.657,44.657,0,0,1-.26,4.69,14.81,14.81,0,0,1-3.98,9.05,11.931,11.931,0,0,1-8.64,3.22c-4.57,0-7.76-1.61-9.79-4.25s-2.93-6.3-2.93-10.43a25.6,25.6,0,0,1,1-7.44,20.372,20.372,0,0,1,1.99-4.6,15.824,15.824,0,0,1-5.21-1.17c.5-1.41,1-2.78,1.49-4.28a23.791,23.791,0,0,0,8.17,1.05h7.71C95.06,44.33,97.61,45.18,99.28,47.05ZM81.58,57.48c-.09,1.17-.15,2.34-.15,3.52,0,2.67.32,5.13,1.52,6.91a6.789,6.789,0,0,0,6.04,3.08c4.16,0,6.97-2.78,7.59-7.35a38.634,38.634,0,0,0,.32-4.63,35.373,35.373,0,0,0-.5-5.86c-.5-3.4-1.85-4.37-5.74-4.37H84.39A18,18,0,0,0,81.58,57.48ZM122.1,45.32c.06.67.15,1.55.29,2.7.12,1.14.26,2.49.41,4.01.15,1.55.32,3.19.53,4.98.35,3.54.76,7.5,1.11,11.28a24.044,24.044,0,0,1,0,6.47H106.98V70.31h12.69l-2.26-21.53h-7.15V44.33h11.72Zm9.33,2.23c.5-1.41,1-2.78,1.49-4.28a23.791,23.791,0,0,0,8.17,1.05h2.75a10.862,10.862,0,0,1,6.88,1.96c1.88,1.52,3.19,4.13,3.19,8.38v20.1h-5.07V55.22c0-4.83-1.2-6.45-5.92-6.45h-3.19A20.15,20.15,0,0,1,131.43,47.55Zm31.22,3.25a16.936,16.936,0,0,0-1.29-5.16,30.82,30.82,0,0,1,4.42-1.93,13.59,13.59,0,0,1,1.46,4.16,56.424,56.424,0,0,1,.56,6.09l.91,16.52c.56.03,1.08.06,1.64.06,4.45,0,8.32-1.32,11.13-4.22,2.78-2.9,4.45-7.29,4.45-13.51a16.463,16.463,0,0,0-.29-3.49,37.672,37.672,0,0,0-5.54-.97c-.35,1.03-.97,2.7-1.23,3.52-.38,1.08-.76,2.17-1.14,3.49l-4.07-1.35c.94-3.43,2.11-6.8,3.37-10.2a83.36,83.36,0,0,1,12.89,2.08,28.828,28.828,0,0,1,.73,7.29c0,6.83-1.96,11.98-5.27,15.62a18.482,18.482,0,0,1-7.53,4.95,26.322,26.322,0,0,1-8.61,1.23,41.361,41.361,0,0,1-5.19-.29l-.97-15.91C162.92,56.1,162.77,52.32,162.65,50.8Zm35.78-3.25c.5-1.41,1-2.78,1.49-4.28a23.791,23.791,0,0,0,8.17,1.05h5.71a10.665,10.665,0,0,1,6.86,1.99c1.88,1.49,3.16,4.1,3.16,8.35v20.1h-5.07V55.22c0-4.89-1.14-6.45-5.92-6.45h-6.09A20.173,20.173,0,0,1,198.43,47.55Zm1.23,9.93c.82.12,1.64.23,2.49.35.82.15,1.64.26,2.46.38a38.072,38.072,0,0,0-.64,7.47v9.08H198.9v-9.2A31.741,31.741,0,0,1,199.66,57.48Z" transform="translate(-19.27 -36.01)" fill="#231f20" opacity="0.997"/>
  </g>
</svg>
