<?xml version="1.0" encoding="UTF-8" standalone="no"?>
<!DOCTYPE svg PUBLIC "-//W3C//DTD SVG 1.1//EN" "http://www.w3.org/Graphics/SVG/1.1/DTD/svg11.dtd">
<svg version="1.1" xmlns="http://www.w3.org/2000/svg" xmlns:xlink="http://www.w3.org/1999/xlink" preserveAspectRatio="xMidYMid meet" viewBox="0 0 573 401" width="573" height="401"><defs><path d="M312.77 273.2C312.77 273.2 311.89 277.9 316.15 280.04C316.15 280.04 316.22 278.04 320.06 278.73C321.42 278.96 322.8 279.03 324.18 278.93C326.03 278.8 327.78 278.07 329.17 276.85C329.17 276.85 329.17 276.85 329.17 276.85C329.17 276.85 339.86 272.44 344.02 254.98C344.02 254.98 347.08 251.17 346.96 250.2C346.32 250.47 341.19 252.66 340.55 252.93C340.55 252.93 342.74 257.56 341.02 261.4C341.02 261.4 340.81 253.1 339.58 253.29C339.33 253.29 336.25 254.9 336.25 254.9C336.25 254.9 340.02 262.96 337.18 268.81C337.18 268.81 338.25 258.88 335.07 255.48C334.62 255.74 331.05 257.83 330.6 258.09C330.6 258.09 335.01 266.41 332.02 273.2C332.02 273.2 332.79 262.78 329.65 258.73C329.25 259.04 325.98 261.6 325.57 261.92C325.57 261.92 329.7 270.12 327.19 275.75C327.19 275.75 326.86 263.63 324.68 262.71C324.68 262.71 321.1 265.87 320.55 267.17C320.55 267.17 323.39 273.16 321.63 276.26C321.63 276.26 320.55 268.18 319.64 268.14C319.64 268.14 316.07 273.5 315.7 277.13C315.88 273.74 316.94 270.46 318.78 267.6C316.72 267.99 314.82 268.98 313.31 270.43C313.31 270.43 313.87 266.65 319.66 266.32C319.66 266.32 322.6 262.25 323.39 262C323.39 262 317.64 261.52 314.15 263.07C314.15 263.07 317.22 259.5 324.44 261.12C324.84 260.79 328.04 258.16 328.44 257.83C328.44 257.83 320.85 256.83 317.65 257.94C317.65 257.94 321.34 254.78 329.52 257.08C329.96 256.81 333.48 254.71 333.92 254.45C333.92 254.45 327.46 253.06 323.61 253.56C323.61 253.56 327.68 251.37 335.21 253.74C335.52 253.6 338.04 252.47 338.35 252.33C338.35 252.33 333.62 251.4 332.23 251.25C332.23 251.25 330.77 250.72 330.77 250.72C333.77 250.23 336.85 250.57 339.66 251.72C339.66 251.72 346.41 249.28 346.29 248.86C346.29 248.86 308.34 246.57 312.77 273.2Z" id="a1tp6NMe81"></path><path d="M208.04 123.54C208.04 123.54 207.15 128.25 211.41 130.39C211.41 130.39 211.48 128.39 215.31 129.08C216.67 129.31 218.06 129.37 219.43 129.28C221.3 129.15 223.08 128.42 224.49 127.19C224.49 127.19 224.49 127.19 224.49 127.19C224.49 127.19 235.17 122.79 239.32 105.33C239.32 105.33 242.4 101.51 242.32 100.53C241.68 100.81 236.55 103 235.91 103.28C235.91 103.28 238.09 107.9 236.36 111.75C236.36 111.75 236.17 103.45 234.93 103.64C234.68 103.64 231.6 105.25 231.6 105.25C231.6 105.25 235.37 113.3 232.52 119.16C232.52 119.16 233.6 109.23 230.42 105.83C229.97 106.09 226.36 108.2 225.91 108.46C225.91 108.46 230.31 116.78 227.33 123.57C227.33 123.57 228.09 113.16 224.96 109.1C224.55 109.42 221.27 111.97 220.86 112.29C220.86 112.29 225.01 120.5 222.48 126.13C222.48 126.13 222.15 114.01 219.97 113.09C219.97 113.09 216.4 116.24 215.86 117.54C215.86 117.54 218.69 123.53 216.93 126.64C216.93 126.64 215.85 118.56 214.93 118.52C214.93 118.52 211.36 123.87 210.99 127.51C211.17 124.12 212.22 120.83 214.06 117.98C212.01 118.37 210.11 119.35 208.61 120.81C208.61 120.81 209.16 117.02 214.94 116.69C214.94 116.69 217.94 112.63 218.68 112.38C218.68 112.38 212.92 111.9 209.44 113.45C209.44 113.45 212.5 109.88 219.73 111.45C220.13 111.12 223.33 108.48 223.73 108.15C223.73 108.15 216.16 107.15 212.94 108.26C212.94 108.26 216.64 105.11 224.82 107.4C225.26 107.14 228.77 105.04 229.21 104.78C229.21 104.78 222.76 103.38 218.92 103.89C218.92 103.89 222.97 101.7 230.5 104.07C230.82 103.93 233.33 102.8 233.65 102.66C233.65 102.66 228.91 101.73 227.54 101.58C227.54 101.58 226.08 101.05 226.08 101.05C229.07 100.55 232.15 100.9 234.96 102.05C234.96 102.05 241.7 99.62 241.56 99.2C234.85 104.07 203.6 96.92 208.04 123.54Z" id="dQyHYyhtM"></path><path d="M108.04 171.57C108.04 171.57 103.55 169.89 100.72 173.73C100.72 173.73 102.65 174.13 101.34 177.79C100.89 179.08 100.59 180.42 100.45 181.79C100.25 183.64 100.67 185.51 101.63 187.11C101.63 187.11 101.63 187.11 101.63 187.11C101.63 187.11 104.16 198.4 120.61 205.47C120.61 205.47 123.85 209.14 124.83 209.18C124.67 208.51 123.39 203.08 123.23 202.4C123.23 202.4 118.29 203.77 114.8 201.4C114.8 201.4 123.02 202.61 123.03 201.4C123.03 201.15 122.03 197.85 122.03 197.85C122.03 197.85 113.45 200.18 108.16 196.38C108.16 196.38 117.75 199.14 121.66 196.59C121.48 196.1 120.04 192.17 119.86 191.67C119.86 191.67 110.87 194.6 104.72 190.5C104.72 190.5 114.86 193.03 119.39 190.64C119.15 190.18 117.19 186.52 116.95 186.06C116.95 186.06 108.16 188.74 103.03 185.29C103.03 185.29 115.02 187.03 116.32 185.05C116.32 185.05 113.82 180.99 112.63 180.23C112.63 180.23 106.28 182.01 103.48 179.74C103.48 179.74 111.62 180.05 111.81 179.19C111.81 179.19 107.15 174.76 103.59 173.77C106.9 174.52 109.97 176.12 112.47 178.42C112.43 176.33 111.79 174.29 110.61 172.56C110.61 172.56 114.25 173.76 113.61 179.55C113.61 179.55 117.11 183.14 117.22 183.96C117.22 183.96 118.66 178.38 117.73 174.67C117.73 174.67 120.73 178.31 117.9 185.15C118.16 185.61 120.21 189.24 120.46 189.7C120.46 189.7 122.78 182.4 122.19 179.05C122.19 179.05 124.68 183.22 121.01 190.89C121.2 191.37 122.67 195.2 122.86 195.68C122.86 195.68 125.33 189.55 125.49 185.69C125.49 185.69 126.95 190.07 123.33 197.09C123.41 197.42 124.1 200.09 124.19 200.42C124.19 200.42 125.91 195.92 126.28 194.58C126.28 194.58 127.05 193.23 127.05 193.23C127.04 196.27 126.18 199.25 124.57 201.82C124.57 201.82 125.88 208.79 126.3 208.74C122.65 201.31 135.04 171.7 108.04 171.57Z" id="cTKRqJUgR"></path><path d="M1.8 223.27C1.8 223.27 -1.52 226.71 0.86 230.84C0.86 230.84 2 229.23 4.86 231.9C5.87 232.84 6.99 233.66 8.19 234.33C9.83 235.24 11.71 235.59 13.56 235.33C13.56 235.33 13.56 235.33 13.56 235.33C13.56 235.33 24.9 237.52 37.97 225.22C37.97 225.22 42.63 223.73 43.07 222.85C42.38 222.73 36.88 221.76 36.19 221.64C36.19 221.64 35.47 226.7 31.93 228.97C31.93 228.97 36.31 221.92 35.17 221.41C34.94 221.3 31.51 220.91 31.51 220.91C31.51 220.91 30.23 229.72 24.63 233.05C24.63 233.05 31 225.34 30.21 220.75C29.69 220.72 25.51 220.5 24.98 220.47C24.98 220.47 24.1 229.85 17.86 233.88C17.86 233.88 24.22 225.6 23.86 220.49C23.34 220.53 19.2 220.87 18.68 220.91C18.68 220.91 17.63 230.03 12.43 233.34C12.43 233.34 18.81 223.04 17.5 221.08C17.5 221.08 12.78 221.75 11.61 222.53C11.61 222.53 10.7 229.06 7.5 230.72C7.5 230.72 11.05 223.38 10.33 222.87C10.33 222.87 4.41 225.37 2.08 228.23C4.09 225.5 6.79 223.33 9.89 221.96C7.96 221.16 5.84 220.93 3.78 221.32C3.78 221.32 6.32 218.46 11.33 221.37C11.33 221.37 16.02 219.6 16.82 219.82C16.82 219.82 12.28 216.26 8.51 215.64C8.51 215.64 13.05 214.34 18.19 219.63C18.71 219.58 22.86 219.15 23.38 219.1C23.38 219.1 17.61 214.11 14.31 213.27C14.31 213.27 19.13 212.66 24.69 219.07C25.21 219.09 29.3 219.28 29.81 219.3C29.81 219.3 25.18 214.59 21.7 212.89C21.7 212.89 26.28 213.29 31.28 219.41C31.62 219.47 34.34 219.91 34.68 219.96C34.68 219.96 31.24 216.58 30.16 215.71C30.16 215.71 29.23 214.46 29.23 214.46C32.01 215.69 34.39 217.67 36.11 220.17C36.11 220.17 43.05 221.78 43.18 221.37C34.91 221.75 12.7 198.57 1.8 223.27Z" id="a2Cnk9U3my"></path><path d="M103.29 11.41C103.29 11.41 99.97 14.85 102.35 18.98C102.35 18.98 103.49 17.37 106.35 20.04C107.37 20.97 108.49 21.79 109.69 22.46C111.33 23.37 113.21 23.72 115.06 23.46C115.06 23.46 115.06 23.46 115.06 23.46C115.06 23.46 126.4 25.65 139.47 13.34C139.47 13.34 144.13 11.86 144.56 10.97C143.87 10.85 138.37 9.9 137.68 9.78C137.68 9.78 136.97 14.84 133.42 17.11C133.42 17.11 137.81 10.06 136.67 9.55C136.44 9.44 133.01 9.05 133.01 9.05C133.01 9.05 131.69 17.88 126.09 21.19C126.09 21.19 132.45 13.48 131.67 8.89C131.15 8.86 126.97 8.64 126.44 8.61C126.44 8.61 125.55 17.99 119.32 22.01C119.32 22.01 125.69 13.73 125.32 8.62C124.8 8.66 120.67 9 120.15 9.04C120.15 9.04 119.09 18.17 113.89 21.48C113.89 21.48 120.28 11.18 118.97 9.22C118.97 9.22 114.25 9.89 113.08 10.67C113.08 10.67 112.17 17.2 108.97 18.86C108.97 18.86 112.52 11.52 111.8 11C111.8 11 105.88 13.51 103.55 16.37C105.56 13.63 108.25 11.47 111.36 10.1C109.43 9.29 107.3 9.07 105.24 9.46C105.24 9.46 107.79 6.6 112.8 9.51C112.8 9.51 117.49 7.73 118.29 7.96C118.29 7.96 113.75 4.39 109.98 3.77C109.98 3.77 114.51 2.48 119.65 7.76C120.17 7.71 124.32 7.28 124.84 7.23C124.84 7.23 119.08 2.24 115.77 1.39C115.77 1.39 120.59 0.79 126.16 7.2C126.68 7.22 130.77 7.4 131.28 7.42C131.28 7.42 126.65 2.71 123.16 1.02C123.16 1.02 127.75 1.42 132.75 7.54C133.09 7.6 135.8 8.04 136.14 8.09C136.14 8.09 132.69 4.75 131.61 3.9C130.53 3.04 130.68 2.66 130.68 2.66C133.46 3.89 135.84 5.86 137.56 8.37C137.56 8.37 144.5 9.89 144.67 9.51C136.4 9.89 114.19 -13.3 103.29 11.41Z" id="bKlx9vf8t"></path><path d="M225.99 16.51C225.99 16.51 221.29 17.51 220.92 22.21C220.92 22.21 222.77 21.53 223.59 25.33C223.89 26.68 224.35 27.99 224.96 29.24C225.78 30.91 227.13 32.27 228.79 33.12C228.79 33.12 228.79 33.12 228.79 33.12C228.79 33.12 236.9 41.36 254.64 38.63C254.64 38.63 259.33 40.05 260.19 39.56C259.69 39.07 255.69 35.15 255.19 34.66C255.19 34.66 251.74 38.42 247.52 38.27C247.52 38.27 255.14 34.96 254.51 33.89C254.38 33.68 251.78 31.41 251.78 31.41C251.78 31.41 245.72 37.94 239.23 37.51C239.23 37.51 248.83 34.77 250.79 30.51C250.37 30.2 247.07 27.65 246.65 27.33C246.65 27.33 240.6 34.54 233.18 34.32C233.18 34.32 243.17 31.11 245.69 26.68C245.24 26.42 241.65 24.35 241.2 24.09C241.2 24.09 235.21 31.01 228.99 30.79C228.99 30.79 240.1 25.93 240.13 23.57C240.13 23.57 235.87 21.44 234.46 21.42C234.46 21.42 230 26.29 226.47 25.85C226.47 25.85 233.54 21.8 233.24 20.98C233.24 20.98 226.95 19.69 223.4 20.73C226.61 19.61 230.05 19.35 233.39 19.98C232.25 18.22 230.62 16.83 228.7 15.98C228.7 15.98 232.42 15.07 234.91 20.31C234.91 20.31 239.78 21.51 240.3 22.14C240.3 22.14 238.58 16.64 235.84 13.98C235.84 13.98 240.3 15.49 241.52 22.79C241.98 23.04 245.64 25.04 246.09 25.29C246.09 25.29 244.21 17.89 241.93 15.3C241.93 15.3 246.25 17.54 247.19 25.98C247.6 26.29 250.88 28.76 251.29 29.07C251.29 29.07 250.15 22.55 248.23 19.18C248.23 19.18 251.79 22.11 252.43 29.99C252.67 30.23 254.66 32.13 254.91 32.37C254.91 32.37 253.99 27.64 253.61 26.3C253.23 24.96 253.54 24.87 253.54 24.87C255.13 27.46 255.97 30.44 255.97 33.48C255.97 33.48 260.81 38.66 261.16 38.4C254.12 34.03 248.97 2.34 225.99 16.51Z" id="b76Aox3eW"></path><path d="M146.9 62.83C146.9 62.83 145.77 67.48 149.9 69.82C149.9 69.82 150.07 67.82 153.89 68.72C155.24 69.01 156.62 69.15 158.01 69.13C159.87 69.09 161.68 68.45 163.15 67.3C163.15 67.3 163.15 67.3 163.15 67.3C163.15 67.3 174.05 63.44 179.13 46.21C179.13 46.21 182.39 42.56 182.32 41.57C181.66 41.81 176.43 43.75 175.78 43.99C175.78 43.99 177.77 48.71 175.78 52.47C175.78 52.47 175.99 44.17 174.78 44.3C174.53 44.3 171.37 45.74 171.37 45.74C171.37 45.74 174.73 53.98 171.59 59.72C171.59 59.72 173.17 49.85 170.16 46.3C169.7 46.54 165.98 48.45 165.52 48.69C165.52 48.69 169.51 57.23 166.17 63.86C166.17 63.86 167.47 53.5 164.54 49.29C164.11 49.59 160.72 51.99 160.29 52.29C160.29 52.29 164.01 60.69 161.2 66.19C161.2 66.19 161.49 54.07 159.37 53.04C159.37 53.04 155.63 56.03 155.02 57.27C155.02 57.27 157.55 63.37 155.64 66.41C155.64 66.41 154.97 58.29 154.09 58.21C154.09 58.21 150.26 63.38 149.7 67.02C150.04 63.64 151.27 60.41 153.25 57.65C151.18 57.94 149.24 58.82 147.66 60.2C147.66 60.2 148.4 56.45 154.19 56.41C154.19 56.41 157.34 52.51 158.19 52.3C158.19 52.3 152.46 51.53 148.9 52.9C148.9 52.9 152.14 49.48 159.28 51.47C159.7 51.16 163.06 48.69 163.48 48.38C163.48 48.38 155.88 46.84 152.66 47.84C152.66 47.84 156.52 44.85 164.57 47.59C165.02 47.35 168.64 45.43 169.09 45.19C169.09 45.19 162.71 43.47 158.85 43.78C158.85 43.78 163.01 41.78 170.41 44.55C170.73 44.42 173.31 43.42 173.63 43.3C173.63 43.3 168.94 42.13 167.57 41.91C167.57 41.91 166.14 41.31 166.14 41.31C169.16 40.96 172.21 41.46 174.97 42.75C174.97 42.75 181.7 40.6 181.63 40.18C174.68 44.71 143.77 35.97 146.9 62.83Z" id="d5RpcRqoZ"></path><path d="M410.71 334.37C410.71 334.37 409.58 339.02 413.71 341.36C413.71 341.36 413.88 339.36 417.7 340.25C419.06 340.55 420.44 340.69 421.82 340.66C423.69 340.63 425.5 339.99 426.96 338.83C426.96 338.83 426.96 338.83 426.96 338.83C426.96 338.83 437.86 334.97 442.9 317.75C442.9 317.75 446.15 314.09 446.08 313.11C445.43 313.35 440.19 315.28 439.54 315.52C439.54 315.52 441.54 320.26 439.54 324.01C439.54 324.01 439.75 315.7 438.54 315.84C438.29 315.84 435.13 317.27 435.13 317.27C435.13 317.27 438.49 325.51 435.35 331.25C435.35 331.25 436.93 321.39 433.93 317.83C433.46 318.07 429.75 320 429.28 320.24C429.28 320.24 433.28 328.78 429.94 335.41C429.94 335.41 431.23 325.04 428.3 320.83C427.88 321.12 424.48 323.52 424.06 323.82C424.06 323.82 427.77 332.22 424.97 337.72C424.97 337.72 425.26 325.59 423.13 324.57C423.13 324.57 419.4 327.57 418.78 328.81C418.78 328.81 421.32 334.9 419.4 337.94C419.4 337.94 418.73 329.82 417.85 329.74C417.85 329.74 414.02 334.91 413.46 338.55C413.81 335.17 415.03 331.94 417.02 329.19C414.94 329.47 413 330.35 411.42 331.73C411.42 331.73 412.16 327.98 417.95 327.94C417.95 327.94 421.11 324.03 421.95 323.83C421.95 323.83 416.23 323.05 412.66 324.42C412.66 324.42 415.91 321.01 423.05 323C423.47 322.69 426.82 320.22 427.24 319.92C427.24 319.92 419.73 318.5 416.47 319.48C416.47 319.48 420.32 316.48 428.37 319.22C428.82 318.98 432.44 317.06 432.9 316.82C432.9 316.82 426.51 315.1 422.65 315.41C422.65 315.41 426.81 313.41 434.22 316.18C434.54 316.05 437.11 315.05 437.43 314.92C437.43 314.92 432.75 313.75 431.37 313.54C431.37 313.54 429.94 312.94 429.94 312.94C432.96 312.59 436.02 313.09 438.77 314.37C438.77 314.37 445.52 312.19 445.42 311.76C438.48 316.28 407.59 307.54 410.71 334.37Z" id="a1VRfZrQY6"></path><path d="M524.21 369.61C524.21 369.61 523.09 374.26 527.2 376.6C527.2 376.6 527.37 374.6 531.2 375.5C532.55 375.79 533.92 375.93 535.3 375.9C537.16 375.86 538.96 375.22 540.43 374.08C540.43 374.08 540.43 374.08 540.43 374.08C540.43 374.08 551.32 370.21 556.35 352.98C556.35 352.98 559.62 349.34 559.54 348.35C558.88 348.59 553.65 350.52 552.99 350.76C552.99 350.76 554.99 355.49 552.99 359.25C552.99 359.25 553.2 350.95 551.99 351.08C551.74 351.08 548.59 352.51 548.59 352.51C548.59 352.51 551.94 360.75 548.81 366.49C548.81 366.49 550.39 356.63 547.38 353.07C546.92 353.31 543.2 355.23 542.74 355.47C542.74 355.47 546.73 364.01 543.39 370.64C543.39 370.64 544.68 360.28 541.76 356.07C541.33 356.37 537.94 358.77 537.51 359.07C537.51 359.07 541.23 367.47 538.43 372.97C538.43 372.97 538.71 360.84 536.58 359.82C536.58 359.82 532.86 362.81 532.24 364.05C532.24 364.05 534.77 370.14 532.86 373.19C532.86 373.19 532.19 365.07 531.31 364.99C531.31 364.99 527.47 370.15 526.92 373.8C527.27 370.42 528.49 367.19 530.47 364.43C528.4 364.72 526.45 365.6 524.88 366.98C524.88 366.98 525.63 363.22 531.42 363.19C531.42 363.19 534.56 359.29 535.41 359.08C535.41 359.08 529.69 358.31 526.12 359.68C526.12 359.68 529.37 356.26 536.51 358.25C536.93 357.94 540.29 355.47 540.71 355.16C540.71 355.16 533.2 353.74 529.93 354.72C529.93 354.72 533.79 351.73 541.84 354.47C542.29 354.23 545.91 352.31 546.36 352.07C546.36 352.07 539.98 350.35 536.11 350.66C536.11 350.66 540.28 348.66 547.68 351.43C548 351.3 550.57 350.3 550.9 350.18C550.9 350.18 546.21 349.01 544.84 348.79C544.84 348.79 543.4 348.19 543.4 348.19C546.42 347.84 549.48 348.34 552.23 349.63C552.23 349.63 559.02 347.42 558.92 346.99C558.92 346.99 521.08 342.79 524.21 369.61Z" id="b5i3ML12dy"></path><path d="M400.88 73.58C400.88 73.58 397.55 77.03 399.94 81.15C399.94 81.15 401.08 79.55 403.94 82.21C404.95 83.15 406.07 83.97 407.27 84.65C408.9 85.56 410.79 85.91 412.64 85.65C412.64 85.65 412.64 85.65 412.64 85.65C412.64 85.65 423.98 87.84 437.06 75.54C437.06 75.54 441.71 74.04 442.15 73.16C441.47 73.04 435.98 72.05 435.29 71.93C435.29 71.93 434.57 76.99 431.03 79.26C431.03 79.26 435.41 72.2 434.27 71.7C434.04 71.59 430.62 71.2 430.62 71.2C430.62 71.2 429.33 80.01 423.73 83.33C423.73 83.33 430.1 75.63 429.31 71.04C428.79 71.01 424.61 70.78 424.08 70.76C424.08 70.76 423.19 80.14 416.96 84.17C416.96 84.17 423.33 75.89 422.95 70.78C422.44 70.82 418.3 71.15 417.78 71.2C417.78 71.2 416.78 80.32 411.53 83.63C411.53 83.63 417.92 73.32 416.6 71.37C416.6 71.37 411.88 72.04 410.71 72.81C410.71 72.81 409.81 79.35 406.61 81C406.61 81 410.15 73.66 409.43 73.15C409.43 73.15 403.51 75.66 401.18 78.52C403.19 75.78 405.89 73.62 408.99 72.24C407.06 71.44 404.93 71.22 402.88 71.61C402.88 71.61 405.43 68.75 410.44 71.66C410.44 71.66 415.12 69.89 415.92 70.11C415.92 70.11 411.38 66.54 407.61 65.92C407.61 65.92 412.15 64.62 417.29 69.92C417.81 69.86 421.96 69.44 422.48 69.39C422.48 69.39 416.72 64.39 413.41 63.56C413.41 63.56 418.23 62.95 423.79 69.36C424.31 69.38 428.41 69.56 428.92 69.59C428.92 69.59 424.28 64.87 420.8 63.18C420.8 63.18 425.39 63.58 430.38 69.7C430.72 69.75 433.44 70.19 433.78 70.25C433.78 70.25 430.34 66.87 429.26 65.99C428.18 65.11 428.34 64.82 428.34 64.82C431.11 66.06 433.49 68.03 435.21 70.54C435.21 70.54 442.13 72.09 442.26 71.69C433.99 72.07 411.78 48.88 400.88 73.58Z" id="gtWzqpqfC"></path><path d="M431.67 212.86C431.67 212.86 426.94 213.59 426.35 218.32C426.35 218.32 428.23 217.73 428.88 221.56C429.12 222.93 429.52 224.27 430.08 225.55C430.82 227.28 432.1 228.71 433.73 229.63C433.73 229.63 433.73 229.63 433.73 229.63C433.73 229.63 441.46 238.22 459.3 236.3C459.3 236.3 463.92 237.92 464.8 237.48C464.32 236.97 460.54 232.86 460.07 232.35C460.07 232.35 456.45 235.96 452.25 235.62C452.25 235.62 460 232.63 459.4 231.56C459.28 231.34 456.78 228.95 456.78 228.95C456.78 228.95 450.45 235.2 443.98 234.47C443.98 234.47 453.7 232.18 455.84 228.04C455.44 227.7 452.24 225 451.84 224.67C451.84 224.67 445.47 231.6 438.07 231.06C438.07 231.06 448.14 228.29 450.91 223.99C450.47 223.71 446.97 221.48 446.54 221.2C446.54 221.2 440.19 227.84 434.04 227.34C434.04 227.34 445.36 222.98 445.5 220.63C445.5 220.63 441.32 218.31 439.91 218.23C439.91 218.23 435.25 222.89 431.7 222.29C431.7 222.29 438.96 218.56 438.7 217.72C438.7 217.72 432.46 216.16 428.88 217.02C432.13 216.06 435.57 215.96 438.87 216.73C437.81 214.93 436.25 213.47 434.37 212.54C434.37 212.54 438.13 211.79 440.36 217.13C440.36 217.13 445.17 218.55 445.67 219.21C445.67 219.21 444.2 213.63 441.57 210.86C441.57 210.86 445.97 212.56 446.86 219.91C447.3 220.18 450.87 222.35 451.31 222.62C451.31 222.62 449.75 215.13 447.6 212.49C447.6 212.49 451.81 214.92 452.38 223.39C452.78 223.71 455.98 226.33 456.38 226.65C456.38 226.65 455.53 220.1 453.77 216.66C453.77 216.66 457.19 219.76 457.47 227.65C457.71 227.9 459.61 229.9 459.85 230.15C459.85 230.15 459.15 225.37 458.85 224.02C458.85 224.02 458.85 222.47 458.85 222.47C460.33 225.12 461.04 228.14 460.9 231.18C460.9 231.18 465.45 236.55 465.81 236.31C458.99 231.62 455.31 199.72 431.67 212.86Z" id="l7oQT44gh"></path><path d="M192.32 305.85C192.32 305.85 187.98 307.85 188.74 312.59C188.74 312.59 190.39 311.49 192.09 314.99C192.7 316.23 193.46 317.39 194.34 318.44C195.54 319.89 197.17 320.9 198.99 321.32C198.99 321.32 198.99 321.32 198.99 321.32C198.99 321.32 208.83 327.39 225.41 320.52C225.41 320.52 230.29 320.78 231.01 320.11C230.41 319.75 225.62 316.88 225.02 316.52C225.02 316.52 222.55 321.01 218.43 321.86C218.43 321.86 225.04 316.87 224.15 315.95C223.98 315.77 220.9 314.19 220.9 314.19C220.9 314.19 216.58 321.96 210.17 323.09C210.17 323.09 218.85 318.14 219.74 313.57C219.27 313.36 215.44 311.67 214.96 311.46C214.96 311.46 210.79 319.9 203.54 321.45C203.54 321.45 212.43 315.97 213.88 311.05C213.38 310.91 209.39 309.76 208.89 309.62C208.89 309.62 204.67 317.78 198.63 319.02C198.63 319.02 208.26 311.65 207.73 309.36C207.73 309.36 203.07 308.31 201.74 308.63C201.74 308.63 198.57 314.41 194.99 314.83C194.99 314.83 200.91 309.22 200.42 308.48C200.42 308.48 193.99 308.73 190.8 310.57C193.65 308.73 196.94 307.66 200.33 307.48C198.81 306.04 196.9 305.08 194.84 304.71C194.84 304.71 198.23 302.94 201.84 307.44C201.84 307.44 206.83 307.44 207.52 307.94C207.52 307.94 204.52 302.94 201.24 301.08C201.24 301.08 205.93 301.47 208.85 308.28C209.35 308.41 213.39 309.48 213.89 309.62C213.89 309.62 210.29 302.87 207.48 300.95C207.48 300.95 212.2 302.08 215.13 310.06C215.6 310.26 219.37 311.86 219.84 312.06C219.84 312.06 217.19 306.02 214.52 303.19C214.52 303.19 218.68 305.19 221.16 312.69C221.46 312.86 223.86 314.25 224.16 314.42C224.16 314.42 222.16 310.03 221.45 308.83C221.45 308.83 221.02 307.34 221.02 307.34C223.18 309.47 224.71 312.17 225.43 315.12C225.43 315.12 231.4 319.09 231.67 318.75C231.67 318.75 211.26 286.61 192.32 305.85Z" id="a6RtgrdVX"></path><path d="M338.59 124.18C338.59 124.18 334.2 126.08 334.82 130.81C334.82 130.81 336.49 129.76 338.08 133.3C338.65 134.56 339.38 135.75 340.23 136.84C341.38 138.31 342.98 139.36 344.79 139.83C344.79 139.83 344.79 139.83 344.79 139.83C344.79 139.83 354.42 146.21 371.21 139.83C371.21 139.83 376.09 140.24 376.83 139.59C376.24 139.22 371.55 136.2 370.96 135.82C370.96 135.82 368.37 140.22 364.21 140.95C364.21 140.95 370.97 136.13 370.13 135.22C369.95 135.03 366.93 133.35 366.93 133.35C366.93 133.35 362.36 140.99 355.94 141.92C355.94 141.92 364.77 137.25 365.8 132.71C365.33 132.49 361.56 130.72 361.09 130.49C361.09 130.49 356.66 138.81 349.36 140.14C349.36 140.14 358.42 134.94 360.02 130.08C359.52 129.92 355.58 128.64 355.08 128.48C355.08 128.48 350.61 136.47 344.54 137.57C344.54 137.57 354.38 130.49 353.92 128.19C353.92 128.19 349.31 126.99 347.93 127.27C347.93 127.27 344.59 132.95 341 133.26C341 133.26 347.08 127.85 346.62 127.09C346.62 127.09 340.19 127.14 336.94 128.89C339.85 127.13 343.17 126.17 346.56 126.09C345.09 124.61 343.21 123.58 341.16 123.15C341.16 123.15 344.61 121.49 348.15 126.09C348.15 126.09 353.15 126.26 353.81 126.77C353.81 126.77 350.99 121.78 347.75 119.72C347.75 119.72 352.43 120.26 355.13 127.15C355.63 127.3 359.63 128.5 360.13 128.65C360.13 128.65 356.74 121.8 353.98 119.78C353.98 119.78 358.68 121.07 361.36 129.13C361.82 129.34 365.54 131.08 366 131.29C366 131.29 363.53 125.17 361.01 122.3C361.01 122.3 365.09 124.43 367.36 132C367.65 132.18 369.99 133.64 370.29 133.82C370.29 133.82 368.41 129.38 367.75 128.15C367.75 128.15 367.37 126.65 367.37 126.65C369.46 128.85 370.9 131.59 371.53 134.56C371.53 134.56 377.26 138.63 377.55 138.3C369.76 135.47 358.14 105.54 338.59 124.18Z" id="e1OjcDo10J"></path><path d="M267.89 190.8C267.89 190.8 263.15 190.08 261.16 194.41C261.16 194.41 263.15 194.41 262.59 198.26C262.41 199.63 262.39 201.01 262.53 202.39C262.71 204.26 263.5 206.01 264.78 207.38C264.78 207.38 264.78 207.38 264.78 207.38C264.78 207.38 269.55 217.91 287.13 221.49C287.13 221.49 291.04 224.43 292.02 224.27C291.72 223.64 289.32 218.59 289.02 217.96C289.02 217.96 284.48 220.3 280.57 218.71C280.57 218.71 288.86 218.22 288.63 217C288.63 216.75 286.92 213.72 286.92 213.72C286.92 213.72 278.98 217.76 273.04 215.11C273.04 215.11 283.03 215.85 286.3 212.57C286.02 212.13 283.79 208.59 283.51 208.14C283.51 208.14 275.34 212.82 268.45 210.06C268.45 210.06 278.88 210.48 282.84 207.21C282.51 206.82 279.85 203.62 279.51 203.22C279.51 203.22 271.45 207.63 265.74 205.3C265.74 205.3 277.85 204.57 278.72 202.36C278.72 202.36 275.45 198.89 274.13 198.37C274.13 198.37 268.28 201.36 265.08 199.74C265.08 199.74 273.07 198.41 273.12 197.52C273.12 197.52 267.66 194.13 263.97 193.88C267.37 193.94 270.69 194.89 273.61 196.64C273.16 194.6 272.11 192.73 270.61 191.27C270.61 191.27 274.42 191.7 274.94 197.47C274.94 197.47 279.1 200.28 279.37 201.06C279.37 201.06 279.66 195.3 278 191.86C278 191.86 281.67 194.81 280.29 202.08C280.64 202.47 283.38 205.62 283.72 206.02C283.72 206.02 284.5 198.41 283.25 195.24C283.25 195.24 286.53 198.82 284.51 207.08C284.78 207.51 287 210.95 287.27 211.38C287.27 211.38 288.45 204.88 287.82 201.05C287.82 201.05 290.14 205.05 288.02 212.65C288.18 212.96 289.39 215.44 289.54 215.74C289.54 215.74 290.31 210.98 290.41 209.59C290.41 209.59 290.89 208.11 290.89 208.11C291.49 211.09 291.25 214.18 290.2 217.03C290.2 217.03 292.89 223.63 293.33 223.5C288.24 216.96 294.33 185.44 267.89 190.8Z" id="efCNgTHFI"></path></defs><g><g><g><use xlink:href="#a1tp6NMe81" opacity="0.31" fill="#cccccc" fill-opacity="1"></use><g><use xlink:href="#a1tp6NMe81" opacity="0.31" fill-opacity="0" stroke="#000000" stroke-width="1" stroke-opacity="0"></use></g></g><g><use xlink:href="#dQyHYyhtM" opacity="0.6" fill="#cccccc" fill-opacity="1"></use><g><use xlink:href="#dQyHYyhtM" opacity="0.6" fill-opacity="0" stroke="#000000" stroke-width="1" stroke-opacity="0"></use></g></g><g><use xlink:href="#cTKRqJUgR" opacity="0.6" fill="#ffc0e2" fill-opacity="1"></use><g><use xlink:href="#cTKRqJUgR" opacity="0.6" fill-opacity="0" stroke="#000000" stroke-width="1" stroke-opacity="0"></use></g></g><g><use xlink:href="#a2Cnk9U3my" opacity="0.31" fill="#cccccc" fill-opacity="1"></use><g><use xlink:href="#a2Cnk9U3my" opacity="0.31" fill-opacity="0" stroke="#000000" stroke-width="1" stroke-opacity="0"></use></g></g><g><use xlink:href="#bKlx9vf8t" opacity="0.31" fill="#cccccc" fill-opacity="1"></use><g><use xlink:href="#bKlx9vf8t" opacity="0.31" fill-opacity="0" stroke="#000000" stroke-width="1" stroke-opacity="0"></use></g></g><g><use xlink:href="#b76Aox3eW" opacity="0.31" fill="#cccccc" fill-opacity="1"></use><g><use xlink:href="#b76Aox3eW" opacity="0.31" fill-opacity="0" stroke="#000000" stroke-width="1" stroke-opacity="0"></use></g></g><g><use xlink:href="#d5RpcRqoZ" opacity="0.49" fill="#99d5ff" fill-opacity="1"></use><g><use xlink:href="#d5RpcRqoZ" opacity="0.49" fill-opacity="0" stroke="#000000" stroke-width="1" stroke-opacity="0"></use></g></g><g><use xlink:href="#a1VRfZrQY6" opacity="0.48" fill="#ffbdfd" fill-opacity="1"></use><g><use xlink:href="#a1VRfZrQY6" opacity="0.48" fill-opacity="0" stroke="#000000" stroke-width="1" stroke-opacity="0"></use></g></g><g><use xlink:href="#b5i3ML12dy" opacity="0.31" fill="#cccccc" fill-opacity="1"></use><g><use xlink:href="#b5i3ML12dy" opacity="0.31" fill-opacity="0" stroke="#000000" stroke-width="1" stroke-opacity="0"></use></g></g><g><use xlink:href="#gtWzqpqfC" opacity="0.87" fill="#b9dfff" fill-opacity="1"></use><g><use xlink:href="#gtWzqpqfC" opacity="0.87" fill-opacity="0" stroke="#000000" stroke-width="1" stroke-opacity="0"></use></g></g><g><use xlink:href="#l7oQT44gh" opacity="0.87" fill="#dbdbdb" fill-opacity="1"></use><g><use xlink:href="#l7oQT44gh" opacity="0.87" fill-opacity="0" stroke="#000000" stroke-width="1" stroke-opacity="0"></use></g></g><g><use xlink:href="#a6RtgrdVX" opacity="0.31" fill="#cccccc" fill-opacity="1"></use><g><use xlink:href="#a6RtgrdVX" opacity="0.31" fill-opacity="0" stroke="#000000" stroke-width="1" stroke-opacity="0"></use></g></g><g><use xlink:href="#e1OjcDo10J" opacity="0.87" fill="#ffc8f9" fill-opacity="1"></use><g><use xlink:href="#e1OjcDo10J" opacity="0.87" fill-opacity="0" stroke="#000000" stroke-width="1" stroke-opacity="0"></use></g></g><g><use xlink:href="#efCNgTHFI" opacity="0.6" fill="#8cbfff" fill-opacity="1"></use><g><use xlink:href="#efCNgTHFI" opacity="0.6" fill-opacity="0" stroke="#000000" stroke-width="1" stroke-opacity="0"></use></g></g></g></g></svg>